<svg xmlns="http://www.w3.org/2000/svg" viewBox="0 0 64 64" width="64" height="64">
  <title>Oraclebot</title>
  <circle cx="32" cy="32" r="31" fill="#181a21"></circle>
  <path d="M 17.9262 8.9581 A 27 27 0 0 1 46.0738 8.9581 L 40.8613 17.4922 A 17 17 0 0 0 23.1387 17.4922 Z" fill="#e9e3c8"></path> 
  <path d="M 49.5651 11.4947 A 27 27 0 0 1 58.2632 38.2647 L 48.5361 35.9444 A 17 17 0 0 0 43.0595 19.0892 Z" fill="#4a78c8"></path> 
  <path d="M 56.9296 42.3689 A 27 27 0 0 1 34.1577 58.9136 L 33.3585 48.9456 A 17 17 0 0 0 47.6964 38.5285 Z" fill="#6b6678"></path> 
  <path d="M 29.8423 58.9136 A 27 27 0 0 1 7.0704 42.3689 L 16.3036 38.5285 A 17 17 0 0 0 30.6415 48.9456 Z" fill="#d05a4e"></path> 
  <path d="M 5.7368 38.2647 A 27 27 0 0 1 14.4349 11.4947 L 20.9405 19.0892 A 17 17 0 0 0 15.4639 35.9444 Z" fill="#4ea36a"></path> 
  <circle cx="32" cy="32" r="6" fill="#c8a24a"></circle>
</svg>