<svg xmlns="http://www.w3.org/2000/svg" viewBox="0 0 256 256" width="256" height="256">
  <title>Arbiters Grimoire</title>
  <path d="M 71.709 35.83 A 108 108 0 0 1 184.291 35.83 L 163.442 69.967 A 68 68 0 0 0 92.558 69.967 Z" fill="#e9e3c8"></path>
  <path d="M 198.264 45.982 A 108 108 0 0 1 233.054 153.053 L 194.145 143.774 A 68 68 0 0 0 172.241 76.359 Z" fill="#4a78c8"></path>
  <path d="M 227.716 169.481 A 108 108 0 0 1 136.636 235.654 L 133.438 195.782 A 68 68 0 0 0 190.784 154.117 Z" fill="#6b6678"></path>
  <path d="M 119.364 235.654 A 108 108 0 0 1 28.284 169.481 L 65.216 154.117 A 68 68 0 0 0 122.562 195.782 Z" fill="#d05a4e"></path>
  <path d="M 22.946 153.053 A 108 108 0 0 1 57.736 45.982 L 83.759 76.359 A 68 68 0 0 0 61.855 143.774 Z" fill="#4ea36a"></path>
  <circle cx="128" cy="128" r="24" fill="#c8a24a"></circle>
</svg>